<?xml version="1.0" standalone="no"?>
<!DOCTYPE svg PUBLIC "-//W3C//DTD SVG 20010904//EN"
 "http://www.w3.org/TR/2001/REC-SVG-20010904/DTD/svg10.dtd">
<svg version="1.0" xmlns="http://www.w3.org/2000/svg"
 width="330.000000pt" height="330.000000pt" viewBox="0 0 330.000000 330.000000"
 preserveAspectRatio="xMidYMid meet">
<metadata>
Created by potrace 1.14, written by Peter Selinger 2001-2017
</metadata>
<g transform="translate(0.000000,330.000000) scale(0.100000,-0.100000)"
fill="#000000" stroke="none">
<path d="M0 1645 l0 -1645 1650 0 1650 0 0 1645 0 1645 -1650 0 -1650 0 0
-1645z m2411 982 c73 -49 69 13 69 -1000 0 -997 3 -952 -61 -998 l-34 -24
-720 -3 c-472 -2 -732 1 -755 7 -20 6 -49 24 -65 41 l-30 31 -3 932 c-2 916
-2 933 18 965 11 18 34 41 52 52 32 19 52 20 764 20 l731 0 34 -23z m-1821
-487 c0 -20 -31 -70 -43 -70 -54 1 -71 28 -40 62 17 19 83 25 83 8z m2172 -7
c34 -31 15 -62 -39 -63 -12 0 -43 50 -43 70 0 16 62 12 82 -7z m-2250 -143
c17 0 19 -4 13 -27 -10 -41 -21 -50 -55 -45 -26 4 -30 8 -30 37 0 33 13 47 38
39 8 -2 23 -4 34 -4z m2302 4 c10 -4 16 -18 16 -39 0 -29 -4 -33 -30 -37 -34
-5 -45 4 -55 44 -6 23 -4 27 22 31 15 2 29 5 30 6 1 0 8 -2 17 -5z m-2328
-159 c4 -8 3 -26 0 -40 -5 -21 -12 -25 -42 -25 -39 0 -50 15 -40 55 5 21 12
25 42 25 22 0 37 -6 40 -15z m2380 -10 c10 -40 -1 -55 -40 -55 -30 0 -37 4
-42 25 -10 40 1 55 40 55 30 0 37 -4 42 -25z m-2401 -180 l0 -40 -40 0 c-36 0
-40 3 -43 28 -5 39 15 59 52 55 29 -3 31 -6 31 -43z m2414 31 c7 -8 11 -27 9
-43 -3 -25 -7 -28 -43 -28 -36 0 -40 2 -43 28 -2 16 -1 35 2 43 7 18 60 18 75
0z m-2419 -153 c0 -10 3 -28 6 -40 6 -21 3 -23 -40 -23 -46 0 -46 0 -46 34 0
37 9 44 53 45 19 1 27 -4 27 -16z m2414 11 c10 -4 16 -18 16 -40 0 -34 0 -34
-46 -34 -43 0 -46 2 -40 23 3 12 6 30 6 40 0 18 32 23 64 11z m-2396 -191 c-3
-36 -5 -38 -38 -38 -33 0 -35 2 -38 38 l-3 37 41 0 41 0 -3 -37z m2390 0 c-3
-36 -5 -38 -38 -38 -33 0 -35 2 -38 38 l-3 37 41 0 41 0 -3 -37z m-2373 -165
c-4 -18 -9 -36 -12 -40 -8 -15 -37 -8 -60 14 -41 38 -28 51 55 57 22 1 23 -2
17 -31z m2338 26 c20 -4 37 -12 37 -18 -1 -20 -38 -56 -59 -56 -23 0 -26 4
-36 48 -7 35 -6 36 58 26z"/>
<path d="M952 1998 l3 -493 688 -3 687 -2 0 495 0 495 -690 0 -690 0 2 -492z
m338 -23 l0 -375 -95 0 -95 0 0 375 0 375 95 0 95 0 0 -375z m858 263 l3 -108
-405 0 -405 0 -3 23 c-2 12 -2 61 0 110 l3 87 402 -2 402 -3 3 -107z m0 -305
l-3 -68 -405 0 -405 0 -3 54 c-2 29 -1 60 2 67 4 12 77 14 411 14 l406 0 -3
-67z m-8 -263 l0 -70 -401 2 -402 3 1 58 c0 31 1 62 1 67 1 6 141 10 401 10
l400 0 0 -70z"/>
<path d="M960 1203 c0 -5 -1 -108 -2 -231 l-3 -222 688 0 687 0 0 230 0 230
-685 0 c-377 0 -685 -3 -685 -7z m960 -188 l0 -85 -254 0 -253 0 -6 63 c-11
116 -33 107 259 107 l254 0 0 -85z"/>
</g>
</svg>
